<mxfile host="drawio-plugin" modified="2024-03-02T09:24:25.169Z" agent="5.0 (Windows NT 6.2; Win64; x64) AppleWebKit/537.36 (KHTML, like Gecko) Chrome/104.0.5112.102 Safari/537.36" etag="Lag4H5oyaoXCfgurUJ3k" version="20.5.3" type="embed"><diagram id="23iRSUPoRavnBvh4doch" name="Диаграмма моделей"><mxGraphModel dx="1283" dy="1078" grid="1" gridSize="10" guides="1" tooltips="1" connect="1" arrows="1" fold="1" page="1" pageScale="1" pageWidth="827" pageHeight="1169" math="0" shadow="0"><root><mxCell id="0"/><mxCell id="1" parent="0"/><mxCell id="10" value="&lt;p style=&quot;margin:0px;margin-top:4px;text-align:center;text-decoration:underline;&quot;&gt;&lt;b&gt;Band: Музыкальная группа&lt;/b&gt;&lt;/p&gt;&lt;hr&gt;&lt;p style=&quot;margin:0px;margin-left:8px;&quot;&gt;&lt;b&gt;Id&lt;/b&gt;: BandId -&amp;nbsp;&lt;span style=&quot;background-color: initial;&quot;&gt;Идентификатор&lt;/span&gt;&lt;/p&gt;&lt;p style=&quot;margin:0px;margin-left:8px;&quot;&gt;&lt;b&gt;Name&lt;/b&gt;: BandName - Название&lt;/p&gt;&lt;p style=&quot;margin:0px;margin-left:8px;&quot;&gt;&lt;b&gt;AlbumIds&lt;/b&gt;: IReadOnlyCollection&amp;lt;AlbumId&amp;gt; -&amp;nbsp;&lt;span style=&quot;background-color: initial;&quot;&gt;Музыкальные альбомы&lt;/span&gt;&lt;/p&gt;&lt;p style=&quot;margin:0px;margin-left:8px;&quot;&gt;&lt;b&gt;GenreIds&lt;/b&gt;: IReadOnlyCollection&amp;lt;GenreId&amp;gt; - Музыкальные жанры&lt;/p&gt;&lt;p style=&quot;margin:0px;margin-left:8px;&quot;&gt;&lt;br&gt;&lt;/p&gt;" style="verticalAlign=top;align=left;overflow=fill;fontSize=12;fontFamily=Helvetica;html=1;whiteSpace=wrap;" parent="1" vertex="1"><mxGeometry x="240" y="80" width="240" height="160" as="geometry"/></mxCell><mxCell id="24" value="M..0" style="edgeStyle=orthogonalEdgeStyle;rounded=0;orthogonalLoop=1;jettySize=auto;html=1;entryX=0.5;entryY=1;entryDx=0;entryDy=0;" parent="1" source="16" target="10" edge="1"><mxGeometry relative="1" as="geometry"/></mxCell><mxCell id="16" value="&lt;p style=&quot;margin:0px;margin-top:4px;text-align:center;text-decoration:underline;&quot;&gt;&lt;b&gt;Album: Музыкальный альбом&lt;/b&gt;&lt;/p&gt;&lt;hr&gt;&lt;p style=&quot;margin:0px;margin-left:8px;&quot;&gt;&lt;b&gt;Id&lt;/b&gt;: AlbumId -&amp;nbsp;&lt;span style=&quot;background-color: initial;&quot;&gt;Идентификатор&lt;/span&gt;&lt;/p&gt;&lt;p style=&quot;margin:0px;margin-left:8px;&quot;&gt;&lt;b&gt;Name&lt;/b&gt;: AlbumName - Название&lt;/p&gt;&lt;p style=&quot;margin:0px;margin-left:8px;&quot;&gt;&lt;b&gt;ReleaseDate&lt;/b&gt;: AlbumReleaseDate - Дата выпуска&lt;/p&gt;&lt;p style=&quot;margin:0px;margin-left:8px;&quot;&gt;&lt;b&gt;TrackIds&lt;/b&gt;: IReadOnlyCollection&amp;lt;TrackId&amp;gt; - Музыкальные треки&lt;/p&gt;" style="verticalAlign=top;align=left;overflow=fill;fontSize=12;fontFamily=Helvetica;html=1;whiteSpace=wrap;" parent="1" vertex="1"><mxGeometry x="240" y="320" width="240" height="160" as="geometry"/></mxCell><mxCell id="25" value="M..0" style="edgeStyle=orthogonalEdgeStyle;rounded=0;orthogonalLoop=1;jettySize=auto;html=1;entryX=0.5;entryY=1;entryDx=0;entryDy=0;" parent="1" source="17" target="16" edge="1"><mxGeometry relative="1" as="geometry"/></mxCell><mxCell id="17" value="&lt;p style=&quot;margin:0px;margin-top:4px;text-align:center;text-decoration:underline;&quot;&gt;&lt;b&gt;Track: Музыкальный трек&lt;/b&gt;&lt;/p&gt;&lt;hr&gt;&lt;p style=&quot;margin:0px;margin-left:8px;&quot;&gt;&lt;b&gt;Id&lt;/b&gt;: TrackId-&amp;nbsp;&lt;span style=&quot;background-color: initial;&quot;&gt;Идентификатор&lt;/span&gt;&lt;/p&gt;&lt;p style=&quot;margin:0px;margin-left:8px;&quot;&gt;&lt;b&gt;Name&lt;/b&gt;: TrackName- Название&lt;/p&gt;&lt;p style=&quot;margin:0px;margin-left:8px;&quot;&gt;&lt;b&gt;ReleaseDate&lt;/b&gt;: TrackReleaseDate - Дата выпуска&lt;/p&gt;&lt;p style=&quot;margin:0px;margin-left:8px;&quot;&gt;&lt;b&gt;TrackFileId&lt;/b&gt;: TrackFileId - Файл музыкального трека&lt;/p&gt;&lt;p style=&quot;margin:0px;margin-left:8px;&quot;&gt;&lt;b&gt;Duration&lt;/b&gt;: TrackDuration - Продолжительность&lt;/p&gt;&lt;p style=&quot;margin:0px;margin-left:8px;&quot;&gt;&lt;b&gt;GenreIds&lt;/b&gt;: IReadOnlyCollection&amp;lt;GenreId&amp;gt; - Музыкальные жанры&lt;br&gt;&lt;/p&gt;" style="verticalAlign=top;align=left;overflow=fill;fontSize=12;fontFamily=Helvetica;html=1;whiteSpace=wrap;" parent="1" vertex="1"><mxGeometry x="240" y="560" width="240" height="200" as="geometry"/></mxCell><mxCell id="22" value="M..0" style="edgeStyle=orthogonalEdgeStyle;rounded=0;orthogonalLoop=1;jettySize=auto;html=1;entryX=1;entryY=0.5;entryDx=0;entryDy=0;" parent="1" source="18" target="10" edge="1"><mxGeometry relative="1" as="geometry"><Array as="points"><mxPoint x="560" y="600"/><mxPoint x="560" y="160"/></Array></mxGeometry></mxCell><mxCell id="23" value="M..0" style="edgeStyle=orthogonalEdgeStyle;rounded=0;orthogonalLoop=1;jettySize=auto;html=1;entryX=1;entryY=0.5;entryDx=0;entryDy=0;" parent="1" source="18" target="17" edge="1"><mxGeometry relative="1" as="geometry"><Array as="points"><mxPoint x="600" y="660"/><mxPoint x="600" y="660"/></Array></mxGeometry></mxCell><mxCell id="18" value="&lt;p style=&quot;margin:0px;margin-top:4px;text-align:center;text-decoration:underline;&quot;&gt;&lt;b&gt;Genre: Музыкальный жанр&lt;/b&gt;&lt;/p&gt;&lt;hr&gt;&lt;p style=&quot;margin:0px;margin-left:8px;&quot;&gt;&lt;b&gt;Id&lt;/b&gt;: GenreId -&amp;nbsp;&lt;span style=&quot;background-color: initial;&quot;&gt;Идентификатор&lt;/span&gt;&lt;/p&gt;&lt;p style=&quot;margin:0px;margin-left:8px;&quot;&gt;&lt;b&gt;Name&lt;/b&gt;: GenreName - Название&lt;/p&gt;" style="verticalAlign=top;align=left;overflow=fill;fontSize=12;fontFamily=Helvetica;html=1;whiteSpace=wrap;" parent="1" vertex="1"><mxGeometry x="640" y="560" width="240" height="160" as="geometry"/></mxCell><mxCell id="26" value="1..1" style="edgeStyle=orthogonalEdgeStyle;rounded=0;orthogonalLoop=1;jettySize=auto;html=1;entryX=0.5;entryY=1;entryDx=0;entryDy=0;" parent="1" source="19" target="17" edge="1"><mxGeometry relative="1" as="geometry"/></mxCell><mxCell id="19" value="&lt;p style=&quot;margin:0px;margin-top:4px;text-align:center;text-decoration:underline;&quot;&gt;&lt;b&gt;TrackFile: Файл музыкального трека&lt;/b&gt;&lt;/p&gt;&lt;hr&gt;&lt;p style=&quot;margin:0px;margin-left:8px;&quot;&gt;&lt;b&gt;Id&lt;/b&gt;: TrackFileId-&amp;nbsp;&lt;span style=&quot;background-color: initial;&quot;&gt;Идентификатор&lt;/span&gt;&lt;/p&gt;&lt;p style=&quot;margin:0px;margin-left:8px;&quot;&gt;&lt;b&gt;Name&lt;/b&gt;: TrackFileName- Название&lt;/p&gt;&lt;p style=&quot;margin:0px;margin-left:8px;&quot;&gt;&lt;b&gt;Data&lt;/b&gt;: TrackFileData - Содержимое файла&lt;/p&gt;&lt;p style=&quot;margin:0px;margin-left:8px;&quot;&gt;&lt;b&gt;Extension&lt;/b&gt;: TrackFileExtension - расширение файла&lt;/p&gt;&lt;p style=&quot;margin:0px;margin-left:8px;&quot;&gt;&lt;b&gt;MimeType&lt;/b&gt;: MIME-тип файла&lt;/p&gt;&lt;p style=&quot;margin:0px;margin-left:8px;&quot;&gt;&lt;b&gt;Duration&lt;/b&gt;: TrackFileDuration - Продолжительность&lt;/p&gt;" style="verticalAlign=top;align=left;overflow=fill;fontSize=12;fontFamily=Helvetica;html=1;whiteSpace=wrap;" parent="1" vertex="1"><mxGeometry x="240" y="840" width="240" height="180" as="geometry"/></mxCell></root></mxGraphModel></diagram></mxfile>